<svg xmlns="http://www.w3.org/2000/svg" xmlns:xlink="http://www.w3.org/1999/xlink" id="Capa_2" data-name="Capa 2" viewBox="0 0 294.02 255.78"><defs><style>      .cls-1 {        fill: url(#Degradado_sin_nombre_41);      }      .cls-2 {        fill: #fff;      }      .cls-3 {        fill: #b0c904;      }      .cls-4 {        clip-path: url(#clippath);      }      .cls-5 {        clip-rule: evenodd;        fill: none;      }      .cls-6 {        fill: #7f7f7f;      }      .cls-7 {        fill: #77c606;      }    </style><linearGradient id="Degradado_sin_nombre_41" data-name="Degradado sin nombre 41" x1="84.64" y1="99.35" x2="191.98" y2="99.35" gradientUnits="userSpaceOnUse"><stop offset="0" stop-color="#5185c7"></stop><stop offset="0" stop-color="#5085c7"></stop><stop offset=".68" stop-color="#16a4e0"></stop><stop offset="1" stop-color="#00b1eb"></stop></linearGradient><clipPath id="clippath"><path class="cls-5" d="m138.62,76.82c-13.37-.17-24.35,10.53-24.52,23.9-.17,13.37,10.53,24.35,23.9,24.52,13.37.17,24.35-10.53,24.52-23.9.17-13.37-10.53-24.35-23.9-24.52"></path></clipPath></defs><g id="Capa_1-2" data-name="Capa 1"><g><g><path class="cls-6" d="m5.15,254.77c-1.98-.65-3.7-1.56-5.15-2.73l3.18-4.46c2.32,1.82,5.03,2.73,8.12,2.73,1.55,0,2.78-.26,3.69-.79.91-.52,1.37-1.24,1.37-2.13,0-.85-.42-1.51-1.27-1.98-.85-.47-2.2-.81-4.04-1.01-3.57-.4-6.18-1.23-7.84-2.51-1.66-1.27-2.49-3.09-2.49-5.46,0-1.6.45-3.01,1.35-4.23s2.16-2.17,3.78-2.84,3.49-1.01,5.61-1.01c1.82,0,3.6.26,5.33.79,1.73.52,3.26,1.26,4.59,2.21l-2.88,4.3c-2.05-1.42-4.3-2.13-6.77-2.13-1.52,0-2.74.25-3.65.75-.91.5-1.37,1.17-1.37,2.02s.39,1.46,1.18,1.91,2.1.79,3.95,1.01c3.54.4,6.19,1.28,7.94,2.64,1.75,1.36,2.62,3.23,2.62,5.6,0,1.65-.46,3.1-1.38,4.36-.92,1.26-2.22,2.23-3.89,2.92-1.67.69-3.59,1.03-5.76,1.03s-4.21-.32-6.19-.97Z"></path><path class="cls-6" d="m31.5,254.07c-2.13-1.14-3.78-2.74-4.94-4.81-1.16-2.07-1.74-4.48-1.74-7.22s.58-5.15,1.74-7.22,2.81-3.67,4.94-4.81,4.61-1.7,7.43-1.7,5.3.57,7.43,1.7c2.13,1.14,3.78,2.74,4.94,4.81s1.74,4.48,1.74,7.22-.58,5.15-1.74,7.22c-1.16,2.07-2.81,3.67-4.94,4.81-2.13,1.13-4.61,1.7-7.43,1.7s-5.3-.57-7.43-1.7Zm11.6-4.79c1.21-.69,2.15-1.65,2.81-2.9.66-1.25.99-2.7.99-4.34s-.33-3.09-.99-4.34c-.66-1.25-1.6-2.21-2.81-2.9-1.21-.69-2.6-1.03-4.17-1.03s-2.96.34-4.15,1.03c-1.2.69-2.13,1.65-2.79,2.9-.66,1.25-.99,2.7-.99,4.34s.33,3.09.99,4.34,1.59,2.21,2.79,2.9c1.2.69,2.58,1.03,4.15,1.03s2.96-.34,4.17-1.03Z"></path><path class="cls-6" d="m76.58,234.29h-13.21v6.25h12.46v5.2h-12.46v9.4h-6.14v-26.2h19.35v5.35Z"></path><path class="cls-6" d="m100.91,228.94v5.35h-8.01v20.85h-6.14v-20.85h-7.97v-5.35h22.12Z"></path><path class="cls-6" d="m104.32,228.94h6.14v20.66h13.18v5.54h-19.31v-26.2Z"></path><path class="cls-6" d="m147.36,255.14l-1.95-4.72h-12.91l-1.95,4.72h-6.55l11.75-26.2h6.55l11.68,26.2h-6.63Zm-8.35-20.33l-4.3,10.33h8.53l-4.23-10.33Z"></path><path class="cls-6" d="m178.32,243.97c.75,1.14,1.12,2.41,1.12,3.84,0,2.3-.88,4.09-2.64,5.39-1.76,1.3-4.19,1.95-7.28,1.95h-12.95v-26.2h12.95c2.82,0,5.04.62,6.66,1.87,1.62,1.25,2.43,2.94,2.43,5.09,0,1.27-.29,2.39-.88,3.35-.59.96-1.4,1.69-2.45,2.19,1.27.55,2.28,1.39,3.03,2.53Zm-15.72-9.98v5.2h7.04c.97,0,1.72-.22,2.25-.67s.79-1.09.79-1.91-.27-1.47-.8-1.93c-.54-.46-1.28-.69-2.23-.69h-7.04Zm9.9,15.2c.61-.52.92-1.25.92-2.17s-.31-1.68-.92-2.19c-.61-.51-1.47-.77-2.56-.77h-7.34v5.92h7.34c1.1,0,1.95-.26,2.56-.79Z"></path><path class="cls-6" d="m210.34,230.08c1.51.76,2.68,1.85,3.5,3.28.82,1.42,1.24,3.08,1.24,4.98s-.41,3.56-1.24,4.98c-.82,1.42-1.99,2.51-3.5,3.28-1.51.76-3.28,1.14-5.3,1.14h-6.4v7.41h-6.14v-26.2h12.54c2.02,0,3.79.38,5.3,1.14Zm-2.51,11.21c.76-.72,1.14-1.7,1.14-2.92s-.38-2.2-1.14-2.92c-.76-.72-1.79-1.09-3.09-1.09h-6.14v8.01h6.14c1.3,0,2.33-.36,3.09-1.09Z"></path><path class="cls-6" d="m224.58,249.97h14.45v5.17h-20.4v-26.2h19.99v5.13h-14.04v5.32h13.29v4.94h-13.29v5.65Z"></path><path class="cls-6" d="m253.26,246.49h-3.56v8.65h-6.14v-26.2h12.76c1.9,0,3.56.37,4.98,1.1,1.42.74,2.52,1.78,3.29,3.12.77,1.35,1.16,2.9,1.16,4.64,0,2-.52,3.71-1.55,5.13-1.04,1.42-2.5,2.43-4.4,3.03l7.41,9.17h-7.3l-6.66-8.65Zm5.37-11.34c-.71-.65-1.72-.97-3.01-.97h-5.95v7.37h5.95c1.32,0,2.33-.32,3.03-.95.7-.64,1.05-1.54,1.05-2.71s-.36-2.08-1.07-2.73Z"></path><path class="cls-6" d="m273.38,252.58c-2.08-2.08-3.13-5-3.13-8.74v-14.9h6.14v14.9c0,2,.51,3.57,1.52,4.72,1.01,1.15,2.43,1.72,4.25,1.72s3.17-.57,4.19-1.72c1.02-1.15,1.54-2.72,1.54-4.72v-14.9h6.14v14.9c0,3.74-1.04,6.66-3.11,8.74-2.07,2.08-4.99,3.13-8.76,3.13s-6.69-1.04-8.78-3.13Zm8.67-31.39h6.59l-4.19,5.39h-5.17l2.77-5.39Z"></path></g><g><circle class="cls-1" cx="138.31" cy="99.35" r="53.67"></circle><path class="cls-2" d="m173.85,108.62c.62-2.67.95-5.45.95-8.3s-.33-5.63-.95-8.3h-6.89c-.6-2.09-1.45-4.12-2.53-6.07l4.87-4.87c-2.95-4.76-6.97-8.78-11.73-11.75l-4.88,4.88c-1.94-1.07-3.98-1.92-6.07-2.53v-6.89c-2.67-.62-5.45-.95-8.3-.95s-5.63.33-8.3.95v6.89c-2.09.6-4.13,1.46-6.07,2.53l-4.88-4.88c-4.75,2.97-8.78,6.99-11.73,11.74l4.87,4.88c-1.07,1.94-1.92,3.98-2.53,6.07h-6.89c-.62,2.67-.95,5.45-.95,8.3s.33,5.63.95,8.3h6.89c.6,2.1,1.46,4.13,2.53,6.07l-4.87,4.88c2.96,4.76,6.98,8.78,11.74,11.74l4.88-4.88c1.94,1.07,3.98,1.92,6.07,2.53v6.89c2.67.62,5.45.95,8.3.95s5.63-.33,8.3-.95v-6.89c2.1-.6,4.13-1.45,6.07-2.53l4.88,4.88c4.76-2.96,8.79-6.99,11.74-11.75l-4.87-4.87c1.07-1.94,1.92-3.98,2.53-6.07h6.89Z"></path><g><g class="cls-4"><rect class="cls-6" x="114.1" y="76.82" width="48.42" height="48.42" transform="translate(35.52 238.04) rotate(-89.27)"></rect></g><path class="cls-2" d="m144.05,93.93c-.12-1.23-.65-2.19-1.62-2.89-.96-.7-2.22-1.06-3.77-1.08-1.09-.01-2.03.14-2.81.46-.78.32-1.39.76-1.81,1.31s-.64,1.2-.66,1.92c0,.6.12,1.12.4,1.57.27.44.65.82,1.12,1.13.47.31,1,.57,1.58.79.58.21,1.16.4,1.75.54l2.69.71c1.09.27,2.13.62,3.13,1.07,1,.45,1.9,1,2.7,1.67.8.67,1.42,1.47,1.88,2.4.46.94.68,2.03.66,3.28-.02,1.69-.47,3.17-1.35,4.44-.88,1.27-2.14,2.25-3.78,2.95s-3.61,1.03-5.92,1c-2.24-.03-4.18-.4-5.82-1.12-1.64-.72-2.91-1.74-3.82-3.09-.91-1.35-1.39-2.98-1.44-4.89l5.14.07c.06,1.01.36,1.85.9,2.52.54.67,1.24,1.18,2.11,1.52.87.34,1.86.52,2.94.53s2.13-.14,3-.48c.86-.33,1.54-.8,2.04-1.41s.75-1.33.77-2.15c0-.75-.21-1.38-.64-1.87-.43-.5-1.02-.92-1.79-1.26-.77-.34-1.67-.65-2.7-.93l-3.27-.89c-2.37-.64-4.23-1.59-5.59-2.85-1.36-1.26-2.03-2.92-2-4.99.02-1.7.5-3.18,1.44-4.44.94-1.26,2.21-2.24,3.82-2.93,1.6-.69,3.42-1.02,5.43-.99s3.84.4,5.37,1.13c1.54.73,2.74,1.72,3.6,2.99.87,1.27,1.3,2.71,1.31,4.33l-5.03-.06Z"></path></g></g><g><path class="cls-7" d="m123.79,8.71l-2.51.49c-41.89,7.89-73.6,44.65-73.6,88.83,0,8.88,1.3,17.45,3.69,25.56l-8.9,4.27,11.78,4.01,18.59,6.32,4.19-13.35,5.01-15.95-8.89,4.26c-1.13-4.86-1.74-9.91-1.74-15.11,0-31.34,21.62-57.61,50.75-64.76l1.17-.26-11.88-10.41,12.33-13.91Z"></path><g><path class="cls-7" d="m70.96,164.74H27.13l11.43,11.48-12.11,12.05h82.55c-22.47-6.43-34.16-18.71-38.03-23.52Z"></path><path class="cls-3" d="m246.21,154.82l.09,9.92h-108.18c-24.75,0-46.34-13.49-57.85-33.51l-4.35,12.87-19.12-6.48c5.02,10.29,11.92,19.48,20.27,27.12,14.74,13.5,33.98,22.17,55.2,23.52l5.92.19c-.12.04-.06.02,0,0l108.32-.19.1,10.44,22.23-23.13-22.64-20.76Z"></path></g><path class="cls-7" d="m231.86,131.62l-6.04-11.47-8.91-16.92-13.29,7.4-13.54,7.54,10.47,3.37c-6.51,17.29-20,31.16-37.02,38.18h40.7c8.25-8.83,14.75-19.31,18.94-30.9l8.68,2.79Z"></path><path class="cls-3" d="m141.89,7.7s-3.47,0-4.32,0V0l-20.54,21.85,20.96,18v-8.53c1.91-.04,5.82.27,5.82.27,34.18,2.89,61.02,31.52,61.02,66.45,0,2.13-.11,4.23-.31,6.31l14.23-7.52,8.55,16.2c.81-4.88,1.26-9.88,1.26-14.99,0-48.68-38.47-88.36-86.67-90.34Z"></path></g></g></g></svg>